<svg xmlns="http://www.w3.org/2000/svg" width="135" height="135" viewBox="0 0 135 135"><style type="text/css">  
	.st0{fill:#465652;}
	.st1{fill:#AAB9BA;}
	.st2{fill:#47C67B;}
	.st3{fill:#AAC8D1;}
	.st4{fill:none;stroke:#E83834;stroke-width:6;stroke-linecap:round;stroke-linejoin:round;stroke-miterlimit:10;}
	.st5{fill:#7BC67B;}
	.st6{fill:#7BC7FF;}
	.st7{fill:#7C34C1;}
	.st8{fill:#7C8D96;}
	.st9{fill:#AD2707;}
	.st10{fill:#ADB8BC;}
	.st11{fill:#107510;}
	.st12{fill:#7FE5D8;}
	.st13{fill:#AF4AD1;}
	.st14{fill:#E02B7E;}
	.st15{fill:#E04038;}
	.st16{fill:#AFD7DD;}
	.st17{fill:#E0A010;}
	.st18{fill:#E0D5A4;}
	.st19{fill:#12B2B2;}
	.st20{fill:#12D66B;}
	.st21{fill:#E1A9FF;}
	.st22{fill:#1362A8;}
	.st23{fill:#E2378D;}
	.st24{fill:#E29C37;}
	.st25{fill:#E2B90E;}
	.st26{fill:#E2BF91;}
	.st27{fill:#E2CBAA;}
	.st28{fill:#14A594;}
	.st29{fill:#E4E9ED;}
	.st30{fill:#4A5D60;}
	.st31{fill:#E5B076;}
	.st32{fill:#E5B1C4;}
	.st33{fill:#E5E4C3;}
	.st34{fill:#4B6466;}
	.st35{fill:#E6FF2E;}
	.st36{fill:#18AA67;}
	.st37{fill:#E86207;}
	.st38{fill:#E8A113;}
	.st39{fill:#E8B5A6;}
	.st40{fill:#E8E8ED;}
	.st41{fill:#4E5154;}
	.st42{fill:#E9F1F4;}
	.st43{fill:#4F4B48;}
	.st44{fill:#4F74E8;}
	.st45{fill:#808E93;}
	.st46{fill:#80949B;}
	.st47{fill:#80EDAC;}
	.st48{fill:#B122E0;}
	.st49{fill:#B2C4CC;}
	.st50{fill:#83D839;}
	.st51{fill:#B3C6C6;}
	.st52{fill:none;stroke:#33363A;stroke-width:3;stroke-linecap:round;stroke-linejoin:round;stroke-miterlimit:10;}
	.st53{fill:#1A8E1C;}
	.st54{fill:#1A93D6;}
	.st55{fill:#B50B0B;}
	.st56{fill:#1AD88F;}
	.st57{fill:#B5DAF4;}
	.st58{fill:#EA7B1F;}
	.st59{fill:#EA81BD;}
	.st60{fill:#87B8D6;}
	.st61{fill:#87C3F4;}
	.st62{fill:#EAC79D;}
	.st63{fill:#EADF11;}
	.st64{fill:#EAE4C5;}
	.st65{fill:#B78094;}
	.st66{fill:#8844D8;}
	.st67{fill:#EBF4F7;}
	.st68{fill:#893015;}
	.st69{fill:#89410B;}
	.st70{fill:#899BA3;}
	.st71{fill:#EDE3B9;}
	.st72{enable-background:new    ;}
	.st73{fill:#50FF9F;}
	.st74{fill:#EEDCF4;}
	.st75{fill:#EFA37D;}
	.st76{fill:#EFA3CC;}
	.st77{fill:#EFC99A;}
	.st78{fill:#54AF79;}
	.st79{fill:#BA503A;}
	.st80{fill:#BA8663;}
	.st81{fill:#8B4FE0;}
	.st82{fill:#58ED9B;}
	.st83{fill:#BC7DFF;}
	.st84{fill:#8D9AA3;}
	.st85{fill:#BCCAD3;}
	.st86{fill:#8DE4FF;}
	.st87{fill:#20B518;}
	.st88{fill:#BF44F2;}
	.st89{fill:#21CEA1;}
	.st90{fill:#BFDAE0;}
	.st91{fill:#F0FBFC;}
	.st92{fill:#F2D9A7;}
	.st93{fill:#F2EAC9;}
	.st94{fill:#24D1AF;}
	.st95{fill:#25931C;}
	.st96{fill:#F4C4B3;}
	.st97{fill:#F4D3A2;}
	.st98{fill:#F4D647;}
	.st99{fill:#F4D7B8;}
	.st100{fill:#F4EC8E;}
	.st101{fill:#5B524D;}
	.st102{fill:#F77819;}
	.st103{fill:#F79AE1;}
	.st104{fill:#5E707A;}
	.st105{fill:#F93585;}
	.st106{fill:#F95D5D;}
	.st107{fill:#F9C19B;}
	.st108{fill:#F9CB58;}
	.st109{fill:#F9D2B2;}
	.st110{fill:#F9F07D;}
	.st111{fill:#F9F1D2;}
	.st112{fill:#F9F4B7;}
	.st113{fill:#F9F9E4;}
	.st114{fill:#5F1DAA;}
	.st115{fill:#5F9AD6;}
	.st116{fill:#C0C0C4;}
	.st117{fill:#91EA57;}
	.st118{fill:#C12727;}
	.st119{fill:#C191A0;}
	.st120{fill:#923BB7;}
	.st121{fill:#93A0A3;}
	.st122{fill:#93F9EA;}
	.st123{fill:#93FF5A;}
	.st124{fill:#C4833D;}
	.st125{fill:#95A2A5;}
	.st126{fill:#965514;}
	.st127{fill:#96562C;}
	.st128{fill:#2AF42F;}
	.st129{fill:#C5D7DD;}
	.st130{fill:#C68510;}
	.st131{fill:#C6A86D;}
	.st132{fill:#C6BB8D;}
	.st133{fill:#2C9DCE;}
	.st134{fill:#FBFCF2;}
	.st135{fill:#FC70B0;}
	.st136{fill:#FCE6C8;}
	.st137{fill:#FCF7E3;}
	.st138{fill:#C90D6B;}
	.st139{fill:#FDFEFF;}
	.st140{fill:#FDFFDC;}
	.st141{fill:#FF1A1A;}
	.st142{fill:#FF5252;}
	.st143{fill:#FF5B00;}
	.st144{fill:#FF6155;}
	.st145{fill:#FF630D;}
	.st146{fill:#FF6666;}
	.st147{fill:#FF7676;}
	.st148{fill:#FF7900;}
	.st149{fill:#FF860D;}
	.st150{fill:#FF8B00;}
	.st151{fill:#FF8F8F;}
	.st152{fill:#FF900B;}
	.st153{fill:#FF908A;}
	.st154{fill:#FF960B;}
	.st155{fill:#FF9C0D;}
	.st156{fill:#FFA9D4;}
	.st157{fill:#FFAA00;}
	.st158{fill:#FFAD40;}
	.st159{fill:#FFAF10;}
	.st160{fill:#FFB000;}
	.st161{fill:#FFBE08;}
	.st162{fill:#FFBF31;}
	.st163{fill:#FFC200;}
	.st164{fill:#FFCAE8;}
	.st165{fill:#FFCCF5;}
	.st166{fill:#FFD00B;}
	.st167{fill:#FFD039;}
	.st168{fill:#FFD400;}
	.st169{fill:#FFD833;}
	.st170{fill:#FFDB80;}
	.st171{fill:#FFDDD2;}
	.st172{fill:#FFE6D4;}
	.st173{fill:#FFE6EB;}
	.st174{fill:#FFE98D;}
	.st175{fill:#FFECD2;}
	.st176{fill:#FFF1D9;}
	.st177{fill:#FFF24D;}
	.st178{fill:#FFF3C2;}
	.st179{fill:#FFF4C7;}
	.st180{fill:#FFF800;}
	.st181{fill:#FFF80D;}
	.st182{fill:#FFF9DE;}
	.st183{fill:#FFFBD7;}
	.st184{fill:#FFFBEB;}
	.st185{fill:#FFFCC0;}
	.st186{fill:#FFFCDC;}
	.st187{fill:#FFFFFA;}
	.st188{fill:#FFFFFF;}
	.st189{fill:#63797F;}
	.st190{fill:#65E529;}
	.st191{fill:#66310E;}
	.st192{fill:#663C17;}
	.st193{fill:#9A5AE5;}
	.st194{fill:#CA30EF;}
	.st195{fill:#6892FC;}
	.st196{fill:#9CFFC4;}
	.st197{fill:#CC4306;}
	.st198{fill:#CC549E;}
	.st199{fill:#9E3256;}
	.st200{fill:#CDFFBB;}
	.st201{fill:#CE86AF;}
	.st202{fill:#CED9DD;}
	
		.st203{fill:none;stroke:#33363A;stroke-width:3;stroke-linecap:round;stroke-linejoin:round;stroke-miterlimit:10;stroke-dasharray:6;}
	.st204{fill:#CFE1E2;}
	.st205{fill:#33363A;}
	.st206{fill:#34C166;}
	.st207{fill:#364B5B;}
	.st208{fill:#3662CE;}
	.st209{fill:#36C6FF;}
	.st210{fill:#6ADB9A;}
	.st211{fill:#6D5C4D;}
	.st212{fill:#6EBDF9;}
	.st213{fill:#0031FF;}
	.st214{fill:#0062FF;}
	.st215{fill:#0068FF;}
	.st216{fill:#0086FF;}
	.st217{fill:#009BE8;}
	.st218{fill:#00AAFF;}
	.st219{fill:#D271FF;}
	.st220{fill:#D363A9;}
	.st221{fill:#D3964C;}
	.st222{fill:#D3DFE2;}
	.st223{fill:#D3E0E2;}
	.st224{fill:#D3EFF4;}
	.st225{fill:#063B66;}
	.st226{fill:#D60909;}
	.st227{fill:#D61D1D;}
	.st228{fill:#D7F0FF;}
	.st229{fill:#09B285;}
	.st230{fill:#D8D593;}
	.st231{fill:#D8E2EA;}
	.st232{fill:#D8E5EA;}
	.st233{fill:#3E5054;}
	.st234{fill:#D988FF;}
	.st235{fill:#D9E7E8;}
	.st236{fill:#702252;}
	.st237{fill:#70D3E0;}
	.st238{fill:#A02FF2;}
	.st239{fill:#A2F255;}
	.st240{fill:#A35616;}
	.st241{fill:#A3CCCC;}
	.st242{fill:#0A6ADD;}
	.st243{fill:#A5145D;}
	.st244{fill:#A57555;}
	.st245{fill:#77D6FC;}
	.st246{fill:#7815CE;}
	.st247{fill:#A7BBC1;}
	.st248{fill:#DBD279;}
	.st249{fill:#0D5C9E;}
	.st250{fill:#A83C11;}
	.st251{fill:#A8633D;}
	.st252{fill:#A8A3E5;}
	.st253{fill:#DCE6EA;}
	.st254{fill:#DCE7EA;}
	.st255{fill:#A962E8;}
	.st256{fill:#DD2466;}
	.st257{fill:#DDC38A;}
	.st258{fill:#DDD2B1;}
	.st259{fill:#DFE7E8;}
	.st260{fill:#42B1E8;}
	.st261{fill:#436377;}
	.st262{fill:#43B530;}
</style><path class="st232" d="M107.5 19.3h-12.1v-6.1c0-4.2-3.4-7.7-7.7-7.7H47.2c-4.2 0-7.7 3.4-7.7 7.7v6.1h-12.1c-8.3 0-15.1 6.8-15.1 15.1v80c0 8.3 6.8 15.1 15.1 15.1h80c8.3 0 15.1-6.8 15.1-15.1V34.4C122.6 26 115.9 19.3 107.5 19.3zM67.5 104.2c-16.5 0-29.8-13.4-29.8-29.8 0-16.5 13.4-29.8 29.8-29.8s29.8 13.4 29.8 29.8C97.3 90.9 84 104.2 67.5 104.2z"/><path class="st129" d="M107.5 33.5h-12.1v-6.1c0-4.2-3.4-7.7-7.7-7.7H47.2c-4.2 0-7.7 3.4-7.7 7.7v6.1h-12.1c-8.3 0-15.1 6.8-15.1 15.1v65.8c0 8.3 6.8 15.1 15.1 15.1h80c8.3 0 15.1-6.8 15.1-15.1V48.6C122.6 40.3 115.9 33.5 107.5 33.5zM97.3 88.6c0 16.5-13.4 29.8-29.8 29.8s-29.8-13.4-29.8-29.8c0-2.5 0.3-4.8 0.9-7.1 -0.6-2.3-0.9-4.7-0.9-7.1 0-16.5 13.4-29.8 29.8-29.8s29.8 13.4 29.8 29.8c0 2.5-0.3 4.8-0.9 7.1C97 83.8 97.3 86.2 97.3 88.6z"/><path class="st205" d="M107.5 131H27.5c-9.2 0-16.6-7.4-16.6-16.6V34.4c0-9.2 7.4-16.6 16.6-16.6h10.6v-4.6C38.1 8.1 42.2 4 47.2 4h40.6c5 0 9.2 4.1 9.2 9.2v4.6h10.6c9.2 0 16.6 7.4 16.6 16.6v80C124.1 123.6 116.7 131 107.5 131zM27.5 20.8c-7.5 0-13.6 6.1-13.6 13.6v80c0 7.5 6.1 13.6 13.6 13.6h80c7.5 0 13.6-6.1 13.6-13.6V34.4c0-7.5-6.1-13.6-13.6-13.6h-12.1c-0.8 0-1.5-0.7-1.5-1.5v-6.1c0-3.4-2.8-6.2-6.2-6.2H47.2c-3.4 0-6.2 2.8-6.2 6.2v6.1c0 0.8-0.7 1.5-1.5 1.5H27.5zM67.5 105.7c-17.3 0-31.3-14.1-31.3-31.3 0-17.3 14.1-31.3 31.3-31.3 17.3 0 31.3 14.1 31.3 31.3C98.8 91.7 84.8 105.7 67.5 105.7zM67.5 46.1c-15.6 0-28.3 12.7-28.3 28.3 0 15.6 12.7 28.3 28.3 28.3 15.6 0 28.3-12.7 28.3-28.3C95.8 58.8 83.1 46.1 67.5 46.1z"/><circle class="st151" cx="67.5" cy="77.2" r="33"/><path class="st141" d="M100.5 77.2c0 13.9-14.8 25.2-33 25.2S34.5 91.1 34.5 77.2c0-13.9 14.8-25.2 33-25.2S100.5 63.2 100.5 77.2z"/><path class="st188" d="M34.5 77.2c0 18.2 14.8 33 33 33s33-14.8 33-33H34.5z"/><path class="st232" d="M67.5 102.4c18.2 0 33-11.3 33-25.2H34.5C34.5 91.1 49.3 102.4 67.5 102.4z"/><path class="st205" d="M67.5 111.6c-19 0-34.5-15.5-34.5-34.5 0-19 15.5-34.5 34.5-34.5s34.5 15.5 34.5 34.5C102 96.2 86.5 111.6 67.5 111.6zM67.5 45.7c-17.3 0-31.5 14.1-31.5 31.5 0 17.3 14.1 31.5 31.5 31.5S99 94.5 99 77.2C99 59.8 84.8 45.7 67.5 45.7z"/><path class="st205" d="M100.5 78.7H34.5c-0.8 0-1.5-0.7-1.5-1.5s0.7-1.5 1.5-1.5h65.9c0.8 0 1.5 0.7 1.5 1.5S101.3 78.7 100.5 78.7z"/><circle class="st247" cx="67.5" cy="81" r="10.9"/><circle class="st188" cx="67.5" cy="77.3" r="10.9"/><path class="st232" d="M59.8 85c-4.3-4.3-4.3-11.2 0-15.4 4.3-4.3 11.2-4.3 15.4 0"/><path class="st205" d="M67.5 89.7c-3.3 0-6.4-1.3-8.8-3.6 -4.8-4.8-4.8-12.7 0-17.5 2.3-2.3 5.5-3.6 8.8-3.6 3.3 0 6.4 1.3 8.8 3.6 2.3 2.3 3.6 5.5 3.6 8.8s-1.3 6.4-3.6 8.8C73.9 88.4 70.8 89.7 67.5 89.7zM67.5 67.9c-2.5 0-4.9 1-6.6 2.8 -3.7 3.7-3.7 9.6 0 13.3 1.8 1.8 4.1 2.8 6.6 2.8 2.5 0 4.9-1 6.6-2.8 1.8-1.8 2.8-4.1 2.8-6.6s-1-4.9-2.8-6.6C72.4 68.8 70 67.9 67.5 67.9z"/><path class="st205" d="M67.5 121.4c-0.8 0-1.5-0.7-1.5-1.5v-9.6c0-0.8 0.7-1.5 1.5-1.5s1.5 0.7 1.5 1.5v9.6C69 120.7 68.3 121.4 67.5 121.4z"/><path class="st205" d="M111.1 106.6h-9.6c-0.8 0-1.5-0.7-1.5-1.5s0.7-1.5 1.5-1.5h9.6c0.8 0 1.5 0.7 1.5 1.5S111.9 106.6 111.1 106.6z"/><path class="st205" d="M111.1 112.5h-9.6c-0.8 0-1.5-0.7-1.5-1.5s0.7-1.5 1.5-1.5h9.6c0.8 0 1.5 0.7 1.5 1.5S111.9 112.5 111.1 112.5z"/><path class="st205" d="M111.1 118.4h-9.6c-0.8 0-1.5-0.7-1.5-1.5s0.7-1.5 1.5-1.5h9.6c0.8 0 1.5 0.7 1.5 1.5S111.9 118.4 111.1 118.4z"/><path class="st205" d="M67.5 131c-0.8 0-1.5-0.7-1.5-1.5v-3.1c0-0.8 0.7-1.5 1.5-1.5s1.5 0.7 1.5 1.5v3.1C69 130.3 68.3 131 67.5 131z"/><circle class="st247" cx="30.3" cy="40.4" r="6.4"/><circle class="st123" cx="30.3" cy="37.3" r="6.4"/><path class="st190" d="M25.8 41.8c-2.5-2.5-2.5-6.6 0-9.1 2.5-2.5 6.6-2.5 9.1 0"/><path class="st205" d="M30.3 45.2c-2.1 0-4.1-0.8-5.6-2.3 -3.1-3.1-3.1-8.1 0-11.2 1.5-1.5 3.5-2.3 5.6-2.3 2.1 0 4.1 0.8 5.6 2.3 1.5 1.5 2.3 3.5 2.3 5.6s-0.8 4.1-2.3 5.6C34.4 44.3 32.4 45.2 30.3 45.2zM30.3 32.4c-1.3 0-2.5 0.5-3.5 1.4 -1.9 1.9-1.9 5 0 6.9 0.9 0.9 2.2 1.4 3.5 1.4 1.3 0 2.5-0.5 3.5-1.4 0.9-0.9 1.4-2.2 1.4-3.5 0-1.3-0.5-2.5-1.4-3.5C32.9 32.9 31.6 32.4 30.3 32.4z"/></svg>
 